<svg fill="#01579b" height="473pt" viewBox="0 -1 473.02425 473" width="473pt" xmlns="http://www.w3.org/2000/svg"><path d="m315.207031.0117188c-13.253906 0-23.996093 10.7460932-23.996093 24.0000002 0 13.253906 10.742187 23.996093 23.996093 23.996093 13.253907 0 24-10.742187 24-23.996093 0-13.253907-10.746093-24.0000002-24-24.0000002zm0 32.0000002c-4.417969 0-8-3.582031-8-8s3.582031-8 8-8 8 3.582031 8 8-3.582031 8-8 8zm0 0"/><path d="m243.210938 40.011719c-22.089844 0-39.996094 17.90625-39.996094 39.996093 0 22.089844 17.90625 40 39.996094 40 22.089843 0 40-17.910156 40-40-.027344-22.078124-17.921876-39.972656-40-39.996093zm0 63.996093c-13.253907 0-24-10.746093-24-24 0-13.253906 10.746093-24 24-24 13.253906 0 24 10.746094 24 24 0 13.253907-10.746094 24-24 24zm0 0"/><path d="m131.21875 56.007812c-17.671875 0-32 14.328126-32 32 0 17.671876 14.328125 32 32 32s31.996094-14.328124 31.996094-32c0-17.671874-14.324219-32-31.996094-32zm0 48c-8.839844 0-16-7.164062-16-16 0-8.835937 7.160156-16 16-16 8.835938 0 15.996094 7.164063 15.996094 16 0 8.835938-7.164063 16-15.996094 16zm0 0"/><path d="m83.21875.0117188c-13.253906 0-23.996094 10.7460932-23.996094 24.0000002 0 13.253906 10.742188 23.996093 23.996094 23.996093s24-10.742187 24-23.996093c0-13.253907-10.746094-24.0000002-24-24.0000002zm0 32.0000002c-4.417969 0-8-3.582031-8-8s3.582031-8 8-8 8 3.582031 8 8-3.582031 8-8 8zm0 0"/><path d="m277.417969 257.007812 15.136719-5.148437 51.742187 152.070313-15.140625 5.148437zm0 0"/><path d="m236.492188 270.886719 15.136718-5.152344 51.742188 152.070313-15.140625 5.152343zm0 0"/><path d="m318.339844 243.054688 15.140625-5.148438 51.722656 152.070312-15.136719 5.148438zm0 0"/><path d="m470.601562 295.660156-37.800781-111.136718c-8.011719-23.5625-33.605469-36.167969-57.167969-28.15625-.003906.003906-.007812.003906-.011718.003906l-21.679688 7.375-1.398437-4.125c-10.191407-30.023438-42.789063-46.101563-72.808594-35.910156-10.804687 3.664062-20.269531 10.464843-27.1875 19.535156-13.996094-1.046875-27.664063 4.589844-36.855469 15.199218-1.726562-.566406-3.488281-1.007812-5.277344-1.328124-5.914062-1.027344-11.972656-.863282-17.824218.480468-22.90625-21.929687-59.246094-21.136718-81.175782 1.769532-7.871093 8.222656-13.125 18.605468-15.082031 29.820312l-.753906 4.296875-22.558594-3.945313c-24.515625-4.289062-47.863281 12.105469-52.15625 36.621094v.007813l-20.191406 115.625c-4.253906 24.515625 12.136719 47.847656 36.636719 52.160156l22.550781 3.941406-.71875 4.113281c-10.945313 2.554688-17.746094 13.5-15.191406 24.445313 1.859375 7.953125 8.292969 14.027344 16.34375 15.425781l170.390625 29.796875c1.160156.207031 2.332031.3125 3.503906.3125 7.953125-.035156 15.15625-4.695312 18.449219-11.933593 3.558593.8125 7.277343.605468 10.726562-.59375l163.777344-55.71875c10.644531-3.621094 16.335937-15.1875 12.714844-25.832032-2.625-7.71875-9.601563-13.125-17.730469-13.742187l-1.34375-3.941407 21.667969-7.375c23.546875-8.042968 36.136719-33.625 28.152343-57.191406zm-130.59375-123.3125 2.804688 8.253906-55.042969 18.726563-2.832031-8.253906zm-133.121093 6.101563c3.371093-1.144531 6.925781-1.652344 10.484375-1.492188 2.925781.144531 5.6875-1.332031 7.191406-3.839843l.027344.007812c6.277344-10.390625 18.367187-15.761719 30.285156-13.457031 3.242188.621093 6.535156-.808594 8.289062-3.609375 5.007813-8.054688 12.660157-14.117188 21.644532-17.15625 18.734375-6.347656 39.34375 1.421875 49.222656 18.558594l-61.851562 21.046874c-4.171876 1.433594-6.394532 5.976563-4.96875 10.152344l11.933593 35.09375c1.679688 5.570313-1.480469 11.445313-7.050781 13.125-5.292969 1.59375-10.917969-1.175781-12.882812-6.34375l-4-11.695312c-1.285157-4.226563-5.757813-6.609375-9.984376-5.320313-4.226562 1.289063-6.609374 5.757813-5.320312 9.984375.050781.167969.105469.332032.167969.496094 1.773437 5.542969-1.285157 11.472656-6.828125 13.242188-5.402344 1.726562-11.203125-1.136719-13.121094-6.476563l-8-23.398437c-1.425781-4.175782-5.964844-6.410157-10.144531-4.992188l-14.628907 4.976562c-.65625-12.910156 7.308594-24.695312 19.535157-28.902343zm-4.480469 49.953125-8.257812 2.804687-2.796876-8.253906 8.246094-2.800781zm-42.34375-70.140625.023438.007812c9.367187 1.601563 17.878906 6.410157 24.089843 13.597657.417969.453124.894531.855468 1.40625 1.199218-6.234375 5.84375-10.691406 13.332032-12.855469 21.601563l-58.398437-10.457031c7.109375-18.445313 26.253906-29.308594 45.734375-25.949219zm-49.324219 41.636719 60.773438 10.863281c.316406 3.023437.945312 6.003906 1.871093 8.894531l-64.140624-11.199219zm-70.714843 178.292968c-15.789063-2.804687-26.332032-17.847656-23.59375-33.644531l20.230468-115.632813c2.753906-15.804687 17.796875-26.386718 33.601563-23.632812.015625.003906.03125.003906.046875.007812l22.542968 3.9375-1.496093 8.589844-16.464844-2.878906c-14.433594-2.527344-28.183594 7.128906-30.710937 21.5625-.003907.011719-.003907.023438-.007813.035156l-18.09375 103.460938c-2.515625 14.441406 7.15625 28.191406 21.597656 30.710937l16.464844 2.878907-1.496094 8.589843zm48.570312-144.613281-21.71875 124.214844-16.476562-2.878907c-5.726563-1.003906-9.558594-6.460937-8.554688-12.1875 0 0 .003906 0 .003906-.003906l18.09375-103.464844c1.019532-5.722656 6.464844-9.542968 12.191406-8.5625zm149.902344 218.792969c-.417969 2.371094-2.679688 3.957031-5.050782 3.539062v.015625l-170.394531-29.808593c-2.382812-.332032-4.046875-2.535157-3.714843-4.917969.335937-2.386719 2.539062-4.050781 4.921874-3.714844.101563.011719.199219.03125.296876.050781 4.355468.757813 8.496093-2.152344 9.257812-6.503906l32.6875-186.878906 72.714844 12.71875 55.75 163.921875-6.519532 37.269531c-.367187 2.089844.113282 4.238281 1.335938 5.976562 1.222656 1.734376 3.082031 2.914063 5.175781 3.277344 2.371094.417969 3.957031 2.679688 3.539063 5.054688zm186.21875-69.304688c.777344 2.273438-.433594 4.746094-2.707032 5.523438-.003906 0-.003906.003906-.003906.003906l-163.777344 55.722656c-2.28125.78125-4.757812-.433594-5.539062-2.714844s.433594-4.757812 2.714844-5.539062c4.183594-1.421875 6.421875-5.964844 5-10.148438v-.003906l-61.09375-179.597656 9.535156-3.242188c8.625 11.785157 25.167969 14.347657 36.949219 5.722657 1.433593-1.046875 2.757812-2.238281 3.953125-3.554688 2.207031 2.355469 4.816406 4.289063 7.710937 5.714844 13.148438 6.46875 29.054688 1.054687 35.527344-12.09375 3.105469-6.3125 3.578125-13.597656 1.3125-20.257813l-1.40625-4.121093 55.050781-18.734375 61.101563 179.597656c1.421875 4.183594 5.960937 6.425781 10.148437 5.007812.003906-.003906.007813-.003906.011719-.007812 2.269531-.761719 4.734375.453125 5.511719 2.722656zm-57.644532-180.792968 15.820313-5.382813c5.503906-1.875 11.488281 1.066406 13.363281 6.570313 0 .003906.003906.011718.003906.019531l33.832032 99.429687c1.867187 5.507813-1.078125 11.488282-6.582032 13.367188l-15.824218 5.382812zm70.242188 135.402343-21.667969 7.375-2.839843-8.253906 15.828124-5.386719c13.863282-4.738281 21.273438-19.796875 16.570313-33.667968l-33.839844-99.4375c-4.742187-13.851563-19.792969-21.261719-33.664062-16.574219l-15.820313 5.382812-2.800781-8.246093 21.726563-7.34375c15.203124-5.171876 31.71875 2.957031 36.894531 18.160156l37.773437 111.113281c5.148438 15.195313-2.976562 31.691406-18.160156 36.878906zm0 0"/><path d="m142.125 429.308594 27.675781-158.222656 15.761719 2.757812-27.679688 158.222656zm0 0"/><path d="m184.792969 436.800781 15.515625-94.101562 15.78125 2.601562-15.519532 94.101563zm0 0"/><path d="m99.605469 421.824219 27.675781-158.238281 15.761719 2.753906-27.679688 158.238281zm0 0"/></svg>