<?xml version="1.0" encoding="iso-8859-1"?>
<!-- Generator: Adobe Illustrator 19.0.0, SVG Export Plug-In . SVG Version: 6.00 Build 0)  -->
<svg fill="#01579b" version="1.1" id="Capa_1" xmlns="http://www.w3.org/2000/svg" xmlns:xlink="http://www.w3.org/1999/xlink" x="0px" y="0px"
	 viewBox="0 0 110 110" style="enable-background:new 0 0 110 110;" xml:space="preserve">
<g id="_x30_203-coffee-love">
	<g>
		<path style="fill-rule:evenodd;clip-rule:evenodd;" d="M45.789,23.343c0.412,0.952,0.878,1.848,1.202,2.888
			c0.782,0.582,0.91,1.818,1.444,2.646c0.289,1.076,0.617,2.111,0.481,3.611c-0.36,2.633-3.039,5.181-0.962,7.461
			c0.705-0.063,0.739,0.543,1.444,0.48c2.302-0.186,2.851-2.123,4.091-3.369c0.217-0.906,0.517-1.728,0.962-2.406
			c0.245-1.681,0.29-3.563,0.24-5.536c-1.102-4.273-3.697-7.052-4.572-11.551v-6.257c0.431-2.778,1.598-4.82,1.925-7.701
			C52.723,2.521,53.453,1.488,53.731,0h-2.166c-0.325,0.074-0.46,0.342-0.962,0.24c-0.667,0.776-1.65,1.238-2.167,2.166
			c-0.89,0.553-1.102,1.787-1.925,2.406c-0.481,1.766-1.381,3.111-1.685,5.055c-0.585,1.66-0.424,4.068-0.722,6.016
			c0.189,1.496,0.334,3.035,0.482,4.572C45.173,21.231,45.217,22.552,45.789,23.343z M30.868,27.193
			c0.453,0.59,0.996,1.09,1.204,1.925c2.019,1.993,4.327,3.694,5.777,6.257v3.37c1.245-0.037,1.926-0.641,2.646-1.204
			c0.382-1.302,0.583-2.786,0.481-4.572c-0.623-3.869-3.647-5.336-5.293-8.183c-0.269-2.223-0.269-4.274,0-6.497
			c0.421-0.541,0.572-1.354,0.961-1.926c0.126-0.356,0.356-0.606,0.482-0.962c0.25-0.099,0.845-0.933,0-0.722
			c-0.04-0.281-0.38-0.262-0.722-0.24c-0.325,0.074-0.46,0.342-0.963,0.24c-2.943,2.556-5.376,6.481-4.813,11.792
			C30.908,26.512,30.89,26.853,30.868,27.193z M66.485,29.359c0.256,1.668,0.605,3.245,0.481,5.295
			c-0.263,0.538-0.397,1.205-0.722,1.684c-0.14,0.612-0.964,1.174-0.481,1.686c1.238,0.635,2.319-0.209,3.369-0.482
			c1.528-1.52,2.601-3.495,2.889-6.257c-0.12-0.844-0.359-1.566-0.241-2.647c-0.372-0.35-0.505-0.939-0.481-1.686
			c-1.105-2.102-2.544-3.874-3.851-5.775c-0.524-0.679-0.667-1.739-0.962-2.647h-0.481c-1.905,0.582-2.599,2.375-2.407,5.055
			C64.338,25.731,65.612,27.345,66.485,29.359z M106.914,60.403c-0.844-0.999-1.834-1.855-2.647-2.888
			c-0.804-0.158-1.177-0.748-1.925-0.963c-0.571-0.471-1.619-0.465-2.166-0.962c-1.26-0.022-2.166-0.401-3.609-0.241
			c-0.787-0.71-2.588,0.224-3.128-0.24c-0.14-3.229-0.508-6.231-1.684-8.423c-7.302-1.603-16.093-1.716-24.307-2.407
			c-8.608-0.375-17.371-0.598-26.231-0.721c-0.307,0.014-0.333,0.308-0.722,0.24c-6.377,0.04-12.983-0.149-19.012,0.24
			c-6.151,0.268-12.179,0.656-17.086,2.166c-1.239,1.168-1.536,3.277-2.166,5.054c-0.429,2.058-0.692,4.282-0.963,6.498
			C0.776,62.15,0.6,67.344,1.027,71.955c1.136,8.73,3.683,16.05,7.941,21.658c2.013,2.881,4.661,5.127,7.46,7.221
			c1.587,0.897,2.898,2.074,4.813,2.647c1.384,1.102,3.412,1.562,5.054,2.407c7.386,2.479,15.399,4.334,25.51,4.091
			c3.737-0.435,7.354-0.988,11.069-1.444c0.026-0.278,0.236-0.167,0.482-0.239c2.593-0.779,4.832-2.268,7.22-3.37
			c2.441-2.132,5.064-4.08,7.46-6.257c2.441-2.132,4.419-4.727,6.737-6.979c0.49-0.715,0.745-1.664,1.444-2.166
			c0.422-0.862,0.725-1.844,1.444-2.408c1.744,0.582,3.778,0.876,6.257,0.723c1.347-0.257,2.472-0.736,3.85-0.962
			c2.437-1.414,4.913-2.788,6.497-5.054c2.029-1.821,3.266-4.436,4.572-6.979C109.844,69.777,108.702,64.117,106.914,60.403z
			 M83.331,81.822c-1.757,3.857-4.045,7.185-6.738,10.107c-1.235,1.572-2.79,2.825-4.332,4.092
			c-1.429,1.378-3.362,2.254-4.813,3.609c-2.923,0.606-5.002,2.056-7.7,2.887c-2.621,0.711-5.378-0.029-7.702,0.723h-8.904
			c-1.416-0.27-3.001-0.369-4.332-0.723c-0.811-0.071-1.643-0.12-2.166-0.481c-0.782-0.021-1.479-0.125-1.925-0.482
			c-2.906-0.381-5.074-1.502-7.701-2.166c-0.376-0.826-1.866-0.54-2.166-1.443c-1.113-0.09-1.364-1.042-2.406-1.203
			c-1.574-1.395-2.972-2.965-4.573-4.332c-0.492-1.111-1.25-1.957-1.925-2.887c-0.571-0.953-1.07-1.979-1.685-2.889
			c-0.92-2.127-2.363-3.733-3.369-5.775c0.039-0.279-0.053-0.428-0.241-0.481c-1.351-4.343-2.316-9.073-2.406-14.68
			c-0.022-5.719-0.051-11.441,1.444-15.642c-0.011-0.412,0.178-0.625,0.481-0.723c13.167,0.471,26.753,0.521,40.43,0.48
			c2.047,0.389,6.536,0.123,9.386,0.481c3.328,0.042,6.546,0.191,9.625,0.481c6.461,0.276,12.71,0.766,18.29,1.926
			C88.32,64.351,87.213,74.475,83.331,81.822z M102.342,71.955c-0.53,3.32-2.466,5.233-4.331,7.219
			c-1.271,0.414-1.945,1.424-3.369,1.686c-0.903,0.614-3.145,0.651-4.332,0.24c1.219-4.638,2.705-9.005,3.128-14.439
			c3.087,0.041,6.561-0.303,8.182,1.204C102.292,68.797,102.447,70.246,102.342,71.955z M62.635,63.291
			c-1.558-0.447-3.434-0.578-5.536-0.48c-0.308,0.013-0.333,0.309-0.722,0.24c-3.449,0.723-5.793,2.549-8.664,3.849
			c-1.652-0.513-2.428-1.903-3.85-2.646c-2.32-0.649-4.417-1.519-7.702-1.203c-0.461,0.422-1.254,0.511-1.925,0.723
			c-0.943,0.74-1.659,1.711-2.406,2.646c-0.16,0.643-0.102,1.503-0.482,1.926c-0.177,2.502,0.336,4.316,0.722,6.256
			c0.985,1.742,2.016,3.439,3.129,5.055c1.933,1.837,4.081,3.459,6.257,5.054c0.994,0.851,1.814,1.876,3.128,2.405
			c0.37,0.593,1.133,0.899,1.684,1.204c0.091,0.051,0.144,0.409,0.241,0.481c0.567,0.426,1.118,0.144,1.925,0.24
			c2.326-0.32,2.619-2.676,4.572-3.369c0.439-0.844,1.56-1.008,1.925-1.925c0.897-0.467,1.365-1.362,2.407-1.685
			c2.317-2.979,5.812-4.776,7.941-7.941c0.544-2.022,1.524-3.611,1.204-6.498C65.613,65.769,64.31,64.343,62.635,63.291z"/>
	</g>
</g>
<g>
</g>
<g>
</g>
<g>
</g>
<g>
</g>
<g>
</g>
<g>
</g>
<g>
</g>
<g>
</g>
<g>
</g>
<g>
</g>
<g>
</g>
<g>
</g>
<g>
</g>
<g>
</g>
<g>
</g>
</svg>
