<svg viewBox="0 1 511 511.99895" xmlns="http://www.w3.org/2000/svg"><path d="m407.425781 373.039062c25.148438-32.359374 40.148438-72.980468 40.148438-117.046874 0-5.519532-4.476563-9.996094-10-9.996094h-11.085938v-12.664063c0-15.074219-12.261719-27.335937-27.335937-27.335937h-176.324219c-5.523437 0-10 4.476562-10 10 0 5.519531 4.476563 10 10 10h176.324219c4.046875 0 7.335937 3.289062 7.335937 7.335937v12.664063h-299.992187v-12.664063c0-4.046875 3.292968-7.335937 7.339844-7.335937h17.9375c5.523437 0 10-4.480469 10-10 0-5.523438-4.476563-10-10-10h-17.9375c-15.074219 0-27.339844 12.261718-27.339844 27.335937v12.664063h-11.085938c-5.519531 0-10 4.476562-10 9.996094 0 44.066406 15 84.6875 40.152344 117.046874l-54.609375 124.957032c-1.351563 3.089844-1.054687 6.65625.792969 9.480468 1.847656 2.820313 4.996094 4.523438 8.367187 4.523438h47.402344c3.574219 0 6.875-1.90625 8.660156-5l48.269531-83.605469c27.320313 15.082031 58.695313 23.679688 92.046876 23.679688 33.351562 0 64.730468-8.597657 92.050781-23.679688l48.265625 83.605469c1.789062 3.09375 5.089844 5 8.660156 5h47.402344c3.375 0 6.523437-1.703125 8.367187-4.523438 1.847657-2.824218 2.148438-6.390624.796875-9.480468zm-305.683593 118.960938h-26.34375l44.714843-102.3125c8.363281 8.527344 17.519531 16.28125 27.347657 23.132812zm-16.042969-226.007812h341.585937c-5.195312 89.699218-79.8125 161.082031-170.792968 161.082031-90.976563 0-165.597657-71.382813-170.792969-161.082031zm325.542969 226.007812-45.714844-79.179688c9.828125-6.851562 18.980468-14.605468 27.347656-23.132812l44.714844 102.3125zm0 0"/><path d="m339.929688 339.429688c-22.285157 22.289062-51.917969 34.5625-83.4375 34.5625-5.523438 0-10 4.476562-10 10 0 5.519531 4.476562 10 10 10 36.863281 0 71.515624-14.355469 97.578124-40.417969 3.90625-3.90625 3.90625-10.238281 0-14.144531-3.902343-3.902344-10.234374-3.902344-14.140624 0zm0 0"/><path d="m379.765625 318.082031.207031-.410156c2.46875-4.941406.46875-10.945313-4.472656-13.417969-4.9375-2.46875-10.945312-.46875-13.417969 4.472656l-.144531.289063c-2.503906 4.925781-.542969 10.945313 4.382812 13.445313 1.449219.738281 2.996094 1.089843 4.523438 1.089843 3.644531 0 7.15625-2 8.921875-5.46875zm0 0"/><path d="m185.234375 223.0625c1.859375-1.859375 2.929687-4.4375 2.929687-7.066406 0-2.632813-1.070312-5.210938-2.929687-7.070313-1.871094-1.859375-4.4375-2.929687-7.070313-2.929687-2.640624 0-5.207031 1.066406-7.070312 2.929687-1.867188 1.859375-2.929688 4.4375-2.929688 7.070313 0 2.628906 1.0625 5.207031 2.929688 7.066406 1.863281 1.859375 4.429688 2.933594 7.070312 2.933594 2.632813 0 5.199219-1.070313 7.070313-2.933594zm0 0"/><path d="m502.488281 67.460938h-55.507812c-1.792969-7.691407-5.671875-14.996094-11.65625-20.980469-16.925781-16.921875-44.359375-17.070313-61.476563-.460938-7.316406-11.171875-19.9375-18.570312-34.257812-18.570312h-48.253906v-1.167969c0-14.492188-11.789063-26.28125-26.28125-26.28125h-8.398438c-14.488281 0-26.277344 11.785156-26.28125 26.269531l-.007812 14.425781c-14.496094-9.398437-33.363282-9.363281-47.824219.109376-1.359375-13.226563-12.566407-23.582032-26.144531-23.582032h-8.230469c-14.492188 0-26.28125 11.792969-26.28125 26.285156v23.953126h-111.386719c-5.523438 0-10 4.476562-10 10 0 5.519531 4.476562 10 10 10h111.386719v25.027343c0 14.492188 11.789062 26.28125 26.28125 26.28125h8.230469c13.929687 0 25.355468-10.890625 26.222656-24.601562 7.242187 4.71875 15.578125 7.085937 23.917968 7.085937 8.296876 0 16.589844-2.34375 23.800782-7.011718l-.007813 15.460937c0 7.019531 2.730469 13.625 7.695313 18.589844 4.964844 4.964843 11.566406 7.703125 18.585937 7.703125h8.441407c14.492187 0 26.28125-11.792969 26.28125-26.28125v-2.242188h48.253906c14.320312 0 26.941406-7.402344 34.253906-18.570312 8.480469 8.226562 19.488281 12.351562 30.5 12.351562 11.21875 0 22.4375-4.273437 30.980469-12.8125 5.984375-5.984375 9.863281-13.289062 11.652343-20.980468h55.511719c5.519531 0 10-4.480469 10-10 0-5.523438-4.476562-10-10-10zm-339.808593 45.027343c0 3.464844-2.816407 6.28125-6.28125 6.28125h-8.230469c-3.464844 0-6.28125-2.816406-6.28125-6.28125v-68.980469c0-3.464843 2.816406-6.28125 6.28125-6.28125h8.230469c3.464843 0 6.28125 2.816407 6.28125 6.28125zm60.699218-18.1875c-9.285156 9.285157-24.394531 9.285157-33.675781 0-9.285156-9.285156-9.285156-24.394531 0-33.679687 4.640625-4.640625 10.738281-6.960938 16.835937-6.960938 6.097657 0 12.199219 2.320313 16.839844 6.960938 4.488282 4.488281 6.964844 10.453125 6.972656 16.800781v.082031c-.007812 6.34375-2.484374 12.308594-6.972656 16.796875zm47.957032 35.414063c0 3.464844-2.816407 6.28125-6.28125 6.28125h-8.4375c-1.679688 0-3.257813-.652344-4.445313-1.839844s-1.839844-2.765625-1.839844-4.441406l.023438-52.210938c0-.015625 0-.027344 0-.042968 0-.011719 0-.027344 0-.039063l.019531-51.140625c0-3.464844 2.816406-6.28125 6.28125-6.28125h8.398438c3.464843 0 6.285156 2.820312 6.285156 6.28125v103.433594zm89.179687-43.167969c0 11.539063-9.386719 20.929687-20.925781 20.929687h-48.15625l.085937-60.027343h48.070313c11.539062 0 20.925781 9.386719 20.925781 20.925781zm60.664063 7.753906c-9.28125 9.285157-24.390626 9.285157-33.675782 0-4.5-4.5-6.976562-10.480469-6.976562-16.839843 0-6.359376 2.476562-12.339844 6.976562-16.839844 4.640625-4.640625 10.742188-6.960938 16.839844-6.960938s12.195312 2.320313 16.835938 6.960938c9.285156 9.285156 9.285156 24.394531 0 33.679687zm0 0"/><path d="m218.078125 178.996094v-20.5c0-5.523438-4.476563-10-10-10s-10 4.476562-10 10v20.5c0 5.523437 4.476563 10 10 10s10-4.476563 10-10zm0 0"/><path d="m121.246094 178.996094v-20.5c0-5.523438-4.476563-10-10-10-5.523438 0-10 4.476562-10 10v20.5c0 5.523437 4.476562 10 10 10 5.523437 0 10-4.476563 10-10zm0 0"/><path d="m314.90625 178.996094v-20.5c0-5.523438-4.476562-10-9.996094-10-5.523437 0-10 4.476562-10 10v20.5c0 5.523437 4.476563 10 10 10 5.519532 0 9.996094-4.476563 9.996094-10zm0 0"/><path d="m411.738281 178.996094v-20.5c0-5.523438-4.476562-10-10-10-5.519531 0-9.996093 4.476562-9.996093 10v20.5c0 5.523437 4.476562 10 9.996093 10 5.523438 0 10-4.476563 10-10zm0 0"/></svg>