<?xml version="1.0" encoding="iso-8859-1"?>
<!-- Generator: Adobe Illustrator 19.0.0, SVG Export Plug-In . SVG Version: 6.00 Build 0)  -->
<svg fill="#01579b" version="1.1" id="Capa_1" xmlns="http://www.w3.org/2000/svg" xmlns:xlink="http://www.w3.org/1999/xlink" x="0px" y="0px"
	 viewBox="0 0 512 512" style="enable-background:new 0 0 512 512;" xml:space="preserve">
<g>
	<g>
		<g>
			<path d="M486.4,38.4H25.6C11.468,38.415,0.015,49.868,0,64v307.2c0.015,14.132,11.468,25.585,25.6,25.6h86.043
				c7.065,43.697,67.917,76.8,144.357,76.8s137.293-33.103,144.357-76.8H486.4c14.132-0.015,25.585-11.468,25.6-25.6V64
				C511.985,49.868,500.532,38.415,486.4,38.4z M256,456.533c-69.383,0-128-31.262-128-68.267S186.617,320,256,320
				s128,31.262,128,68.267S325.383,456.533,256,456.533z M170.667,217.6c0-47.128,38.205-85.333,85.333-85.333
				s85.333,38.205,85.333,85.333c-0.052,47.107-38.227,85.281-85.333,85.333C208.872,302.933,170.667,264.728,170.667,217.6z
				 M494.933,371.2c-0.006,4.71-3.823,8.527-8.533,8.533h-86.043c-5.482-33.911-43.424-61.357-95.846-71.986
				c41.32-22.228,62.248-69.695,50.786-115.193c-11.461-45.498-52.378-77.386-99.298-77.386c-46.92,0-87.837,31.888-99.298,77.386
				c-11.461,45.498,9.466,92.965,50.786,115.193c-52.422,10.629-90.363,38.076-95.846,71.986H25.6
				c-4.71-0.006-8.527-3.823-8.533-8.533V64c0.006-4.71,3.823-8.527,8.533-8.533h460.8c4.71,0.006,8.527,3.823,8.533,8.533V371.2z"
				/>
			<path d="M298.667,345.6h-25.6c-4.713,0-8.533,3.82-8.533,8.533V422.4c0,4.713,3.821,8.533,8.533,8.533
				c4.713,0,8.533-3.82,8.533-8.533v-25.6h17.067c14.138,0,25.6-11.461,25.6-25.6S312.805,345.6,298.667,345.6z M298.667,379.733
				H281.6v-17.067h17.067c4.713,0,8.533,3.82,8.533,8.533S303.38,379.733,298.667,379.733z"/>
			<path d="M238.933,345.6H204.8c-4.713,0-8.533,3.82-8.533,8.533s3.82,8.533,8.533,8.533h17.067v42.667
				c0,4.713-3.821,8.533-8.533,8.533c-4.713,0-8.533-3.821-8.533-8.533c0-4.713-3.82-8.533-8.533-8.533s-8.533,3.821-8.533,8.533
				c0,14.138,11.461,25.6,25.6,25.6c14.138,0,25.6-11.462,25.6-25.6v-42.667c4.713,0,8.533-3.82,8.533-8.533
				S243.646,345.6,238.933,345.6z"/>
		</g>
	</g>
</g>
<g>
</g>
<g>
</g>
<g>
</g>
<g>
</g>
<g>
</g>
<g>
</g>
<g>
</g>
<g>
</g>
<g>
</g>
<g>
</g>
<g>
</g>
<g>
</g>
<g>
</g>
<g>
</g>
<g>
</g>
</svg>
