<svg fill="#01579b" height="480pt" viewBox="0 0 480 480" width="480pt" xmlns="http://www.w3.org/2000/svg"><path d="m240 480c132.546875 0 240-107.453125 240-240s-107.453125-240-240-240-240 107.453125-240 240c.148438 132.484375 107.515625 239.851562 240 240zm-187.65625-117.902344 20.800781-12.050781c35.425781 53.738281 94.546875 87.140625 158.855469 89.753906v24c-72.871094-2.640625-139.894531-40.582031-179.65625-101.703125zm195.65625-104.210937 145.039062 84.128906c-32.539062 48.828125-86.417968 79.210937-145.039062 81.785156zm7.953125-13.886719 148.597656-86.191406c27.019531 53.914062 25.824219 117.664062-3.199219 170.527344zm-7.953125-13.886719v-173.914062c61.070312 2.695312 116.820312 35.519531 148.800781 87.617187zm-16 0-148.800781-86.296875c31.980469-52.097656 87.730469-84.921875 148.800781-87.617187zm-7.953125 13.886719-145.398437 84.335938c-29.023438-52.863282-30.21875-116.613282-3.199219-170.527344zm7.953125 13.886719v165.914062c-58.621094-2.574219-112.5-32.957031-145.039062-81.785156zm16 205.914062v-24c64.320312-2.605469 123.457031-36.007812 158.886719-89.753906l20.800781 12.050781c-39.769531 61.128906-106.808594 99.074219-179.6875 101.703125zm187.945312-115.410156-20.753906-12c31.894532-57.828125 33.09375-127.695313 3.199219-186.582031l20.800781-12.054688c34.199219 66.347656 32.984375 145.402344-3.238281 210.671875zm-4.546874-224.65625-20.796876 12.050781c-34.847656-57.007812-95.84375-92.863281-162.601562-95.585937v-24c75.328125 2.726562 144.238281 43.132812 183.398438 107.535156zm-199.398438-107.535156v24c-66.769531 2.710937-127.777344 38.570312-162.632812 95.585937l-20.800782-12.050781c39.167969-64.410156 108.09375-104.820313 183.433594-107.535156zm-191.199219 121.519531 20.800781 12.058594c-29.894531 58.886718-28.695312 128.753906 3.199219 186.582031l-20.753906 12c-36.210937-65.273437-37.410156-144.328125-3.199219-210.671875zm0 0"/><path d="m216 96c0 8.835938-7.164062 16-16 16s-16-7.164062-16-16 7.164062-16 16-16 16 7.164062 16 16zm0 0"/><path d="m136 152c13.253906 0 24-10.746094 24-24h-16c0 4.417969-3.582031 8-8 8s-8-3.582031-8-8h-16c0 13.253906 10.746094 24 24 24zm0 0"/><path d="m200 144c0 8.835938-7.164062 16-16 16s-16-7.164062-16-16 7.164062-16 16-16 16 7.164062 16 16zm0 0"/><path d="m200 176h16v16h-16zm0 0"/><path d="m144 96h16v16h-16zm0 0"/><path d="m288 96c0 8.835938-7.164062 16-16 16s-16-7.164062-16-16 7.164062-16 16-16 16 7.164062 16 16zm0 0"/><path d="m304 128v16c4.417969 0 8 3.582031 8 8s-3.582031 8-8 8v16c13.253906 0 24-10.746094 24-24s-10.746094-24-24-24zm0 0"/><path d="m352 112c0 8.835938-7.164062 16-16 16s-16-7.164062-16-16 7.164062-16 16-16 16 7.164062 16 16zm0 0"/><path d="m272 136h16v16h-16zm0 0"/><path d="m264 176h16v16h-16zm0 0"/><path d="m400 280c0 8.835938-7.164062 16-16 16s-16-7.164062-16-16 7.164062-16 16-16 16 7.164062 16 16zm0 0"/><path d="m384 208c4.417969 0 8 3.582031 8 8h16c0-13.253906-10.746094-24-24-24s-24 10.746094-24 24h16c0-4.417969 3.582031-8 8-8zm0 0"/><path d="m336 240c0 8.835938-7.164062 16-16 16s-16-7.164062-16-16 7.164062-16 16-16 16 7.164062 16 16zm0 0"/><path d="m344 248h16v16h-16zm0 0"/><path d="m384 232h16v16h-16zm0 0"/><path d="m296 384c0 8.835938-7.164062 16-16 16s-16-7.164062-16-16 7.164062-16 16-16 16 7.164062 16 16zm0 0"/><path d="m344 328c-13.253906 0-24 10.746094-24 24h16c0-4.417969 3.582031-8 8-8s8 3.582031 8 8h16c0-13.253906-10.746094-24-24-24zm0 0"/><path d="m304 328c0 8.835938-7.164062 16-16 16s-16-7.164062-16-16 7.164062-16 16-16 16 7.164062 16 16zm0 0"/><path d="m256 280h16v16h-16zm0 0"/><path d="m320 368h16v16h-16zm0 0"/><path d="m224 384c0 8.835938-7.164062 16-16 16s-16-7.164062-16-16 7.164062-16 16-16 16 7.164062 16 16zm0 0"/><path d="m176 352v-16c-4.417969 0-8-3.582031-8-8s3.582031-8 8-8v-16c-13.253906 0-24 10.746094-24 24s10.746094 24 24 24zm0 0"/><path d="m160 368c0 8.835938-7.164062 16-16 16s-16-7.164062-16-16 7.164062-16 16-16 16 7.164062 16 16zm0 0"/><path d="m200 336h16v16h-16zm0 0"/><path d="m192 296h16v16h-16zm0 0"/><path d="m112 200c0 8.835938-7.164062 16-16 16s-16-7.164062-16-16 7.164062-16 16-16 16 7.164062 16 16zm0 0"/><path d="m96 280c-4.417969 0-8-3.582031-8-8h-16c0 13.253906 10.746094 24 24 24s24-10.746094 24-24h-16c0 4.417969-3.582031 8-8 8zm0 0"/><path d="m152 240c0 8.835938-7.164062 16-16 16s-16-7.164062-16-16 7.164062-16 16-16 16 7.164062 16 16zm0 0"/><path d="m168 232h16v16h-16zm0 0"/><path d="m80 240h16v16h-16zm0 0"/></svg>