<svg fill="#01579b" height="512pt" viewBox="0 -32 512 512" width="512pt" xmlns="http://www.w3.org/2000/svg"><path d="m48.039062 360.144531c-4.421874 0-8-3.578125-8-8v-288.023437c0-4.425782 3.578126-8 8-8 4.425782 0 8 3.574218 8 8v288.023437c0 4.414063-3.574218 8-8 8zm0 0"/><path d="m48.039062 72.121094h-40.039062c-4.425781 0-8-3.578125-8-8 0-4.425782 3.574219-8 8-8h40.039062c4.425782 0 8 3.574218 8 8 0 4.421875-3.574218 8-8 8zm0 0"/><path d="m48.039062 360.144531h-40.039062c-4.425781 0-8-3.578125-8-8 0-4.425781 3.574219-8 8-8h40.039062c4.425782 0 8 3.574219 8 8 0 4.421875-3.574218 8-8 8zm0 0"/><path d="m304 416c-114.695312 0-208-93.304688-208-208s93.304688-208 208-208 208 93.304688 208 208-93.304688 208-208 208zm0-400c-105.863281 0-192 86.136719-192 192s86.136719 192 192 192 192-86.136719 192-192-86.136719-192-192-192zm0 0"/><path d="m304 416c-114.695312 0-208-93.304688-208-208s93.304688-208 208-208 208 93.304688 208 208-93.304688 208-208 208zm0-400c-105.863281 0-192 86.136719-192 192s86.136719 192 192 192 192-86.136719 192-192-86.136719-192-192-192zm0 0"/><path d="m304 448.03125c-114.695312 0-208-93.304688-208-208 0-4.421875 3.574219-8 8-8s8 3.578125 8 8c0 105.863281 86.136719 192 192 192s192-86.136719 192-192c0-4.421875 3.574219-8 8-8s8 3.578125 8 8c0 114.695312-93.304688 208-208 208zm0 0"/><path d="m114.414062 152.128906h-66.375c-4.421874 0-8-3.578125-8-8 0-4.425781 3.578126-8 8-8h66.375c4.425782 0 8 3.574219 8 8 0 4.421875-3.582031 8-8 8zm0 0"/><path d="m124.28125 128.144531h-76.242188c-4.421874 0-8-3.578125-8-8 0-4.425781 3.578126-8 8-8h76.242188c4.421875 0 8 3.574219 8 8 0 4.421875-3.578125 8-8 8zm0 0"/><path d="m106.558594 280.144531h-58.519532c-4.421874 0-8-3.578125-8-8 0-4.425781 3.578126-8 8-8h58.519532c4.425781 0 8 3.574219 8 8 0 4.421875-3.574219 8-8 8zm0 0"/><path d="m111.976562 304.136719h-63.9375c-4.421874 0-8-3.578125-8-8 0-4.425781 3.578126-8 8-8h63.9375c4.421876 0 8 3.574219 8 8 0 4.421875-3.578124 8-8 8zm0 0"/><path d="m104 248.03125c-4.425781 0-8-3.574219-8-8v-32.03125c0-4.425781 3.574219-8 8-8s8 3.574219 8 8v32.03125c0 4.425781-3.574219 8-8 8zm0 0"/><path d="m504 248.03125c-4.425781 0-8-3.574219-8-8v-32.03125c0-4.425781 3.574219-8 8-8s8 3.574219 8 8v32.03125c0 4.425781-3.574219 8-8 8zm0 0"/><path d="m288 152.015625c-4.425781 0-8-3.574219-8-8v-40c0-4.421875 3.574219-8 8-8s8 3.578125 8 8v40c0 4.425781-3.574219 8-8 8zm0 0"/><path d="m320.007812 152.015625c-4.421874 0-8-3.574219-8-8v-40c0-4.421875 3.578126-8 8-8 4.425782 0 8 3.578125 8 8v40c0 4.425781-3.574218 8-8 8zm0 0"/><path d="m231.992188 176.015625c-4.425782 0-8-3.574219-8-8 0-17.648437 14.351562-32 32-32 4.421874 0 8 3.578125 8 8 0 4.425781-3.578126 8-8 8-8.824219 0-16 7.175781-16 16 0 4.425781-3.578126 8-8 8zm0 0"/><path d="m376.015625 176.007812c-4.421875 0-8-3.574218-8-8 0-8.824218-7.175781-15.992187-16-15.992187-4.421875 0-8-3.574219-8-8 0-4.421875 3.578125-8 8-8 17.648437 0 32 14.351563 32 31.992187 0 4.425782-3.574219 8-8 8zm0 0"/><path d="m288 152.015625h-32.007812c-4.425782 0-8-3.574219-8-8 0-4.421875 3.574218-8 8-8h32.007812c4.425781 0 8 3.578125 8 8 0 4.425781-3.574219 8-8 8zm0 0"/><path d="m352.015625 152.015625h-32.015625c-4.425781 0-8-3.574219-8-8 0-4.421875 3.574219-8 8-8h32.015625c4.425781 0 8 3.578125 8 8 0 4.425781-3.574219 8-8 8zm0 0"/><path d="m231.992188 327.992188c-4.425782 0-8-3.578126-8-8v-151.976563c0-4.421875 3.574218-8 8-8 4.421874 0 8 3.578125 8 8v151.976563c0 4.421874-3.578126 8-8 8zm0 0"/><path d="m376.015625 327.894531c-4.421875 0-8-3.574219-8-8v-151.886719c0-4.421874 3.578125-8 8-8 4.425781 0 8 3.578126 8 8v151.886719c0 4.425781-3.574219 8-8 8zm0 0"/><path d="m328 112.015625h-48c-4.425781 0-8-3.574219-8-8v-24c0-4.421875 3.574219-8 8-8h48c4.425781 0 8 3.578125 8 8v24c0 4.425781-3.574219 8-8 8zm-40-16h32v-8h-32zm0 0"/><path d="m376.007812 199.984375h-144.015624c-4.425782 0-8-3.578125-8-8 0-4.425781 3.574218-8 8-8h144.015624c4.425782 0 8 3.574219 8 8 0 4.421875-3.574218 8-8 8zm0 0"/><path d="m376.007812 296.03125h-144.015624c-4.425782 0-8-3.574219-8-8 0-4.421875 3.574218-8 8-8h144.015624c4.425782 0 8 3.578125 8 8 0 4.425781-3.574218 8-8 8zm0 0"/><path d="m304 264.023438c-22.808594 0-40.007812-10.320313-40.007812-24.007813 0-13.679687 17.199218-23.992187 40.007812-23.992187s40 10.3125 40 23.992187c0 13.6875-17.191406 24.007813-40 24.007813zm0-32c-15.496094 0-24.007812 6-24.007812 7.992187s8.511718 8.007813 24.007812 8.007813c15.488281 0 24-6.015626 24-8.007813s-8.511719-7.992187-24-7.992187zm0 0"/><path d="m248 343.992188c-13.230469 0-24-10.769532-24-24 0-4.425782 3.574219-8 8-8s8 3.574218 8 8c0 4.414062 3.585938 8 8 8 4.425781 0 8 3.574218 8 8 0 4.421874-3.574219 8-8 8zm0 0"/><path d="m359.902344 343.992188c-4.421875 0-8-3.578126-8-8 0-4.425782 3.578125-8 8-8 4.464844 0 8.097656-3.632813 8.097656-8.097657 0-4.421875 3.574219-8 8-8s8 3.578125 8 8c0 13.289063-10.808594 24.097657-24.097656 24.097657zm0 0"/><path d="m360 343.992188h-112c-4.425781 0-8-3.578126-8-8 0-4.425782 3.574219-8 8-8h112c4.425781 0 8 3.574218 8 8 0 4.421874-3.574219 8-8 8zm0 0"/><path d="m8 400.136719c-4.425781 0-8-3.578125-8-8v-368c0-4.425781 3.574219-8 8-8s8 3.574219 8 8v368c0 4.414062-3.574219 8-8 8zm0 0"/><path d="m192.007812 224.136719h-56.015624c-4.425782 0-8-3.578125-8-8 0-4.425781 3.574218-8 8-8h56.015624c4.425782 0 8 3.574219 8 8 0 4.421875-3.574218 8-8 8zm0 0"/><path d="m192.007812 192.136719h-31.992187c-4.421875 0-8-3.578125-8-8 0-4.425781 3.578125-8 8-8h31.992187c4.425782 0 8 3.574219 8 8 0 4.421875-3.574218 8-8 8zm0 0"/><path d="m192.007812 256.03125h-31.992187c-4.421875 0-8-3.574219-8-8 0-4.421875 3.578125-8 8-8h31.992187c4.425782 0 8 3.578125 8 8 0 4.425781-3.574218 8-8 8zm0 0"/><path d="m472.046875 224.03125h-56.015625c-4.421875 0-8-3.574219-8-8 0-4.421875 3.578125-8 8-8h56.015625c4.425781 0 8 3.578125 8 8 0 4.425781-3.574219 8-8 8zm0 0"/><path d="m448.023438 256.03125h-31.992188c-4.421875 0-8-3.574219-8-8 0-4.421875 3.578125-8 8-8h31.992188c4.425781 0 8 3.578125 8 8 0 4.425781-3.574219 8-8 8zm0 0"/><path d="m448.023438 192.136719h-31.992188c-4.421875 0-8-3.578125-8-8 0-4.425781 3.578125-8 8-8h31.992188c4.425781 0 8 3.574219 8 8 0 4.421875-3.574219 8-8 8zm0 0"/></svg>