<?xml version="1.0" encoding="iso-8859-1"?>
<!-- Generator: Adobe Illustrator 18.0.0, SVG Export Plug-In . SVG Version: 6.00 Build 0)  -->
<!DOCTYPE svg PUBLIC "-//W3C//DTD SVG 1.1//EN" "http://www.w3.org/Graphics/SVG/1.1/DTD/svg11.dtd">
<svg version="1.1" id="Capa_1" xmlns="http://www.w3.org/2000/svg" xmlns:xlink="http://www.w3.org/1999/xlink" x="0px" y="0px"
	 viewBox="0 0 58 58" style="enable-background:new 0 0 58 58;" xml:space="preserve">
<g>
	<path d="M4.395,45h11.388c1.419,0,2.685-0.729,3.384-1.951c0.688-1.201,0.681-2.631-0.019-3.825l-5.694-9.717
		c-0.704-1.201-1.962-1.918-3.366-1.918c-1.403,0-2.662,0.717-3.365,1.918L1.03,39.224c-0.7,1.194-0.707,2.624-0.019,3.825
		C1.71,44.271,2.975,45,4.395,45z M2.755,40.236l5.694-9.717c0.341-0.582,0.954-0.93,1.64-0.93c0.686,0,1.299,0.348,1.64,0.93
		l5.694,9.717c0.338,0.576,0.341,1.239,0.009,1.819C17.093,42.647,16.476,43,15.783,43H4.395c-0.693,0-1.31-0.354-1.649-0.945
		C2.414,41.475,2.417,40.812,2.755,40.236z"/>
	<path d="M1.501,53h4v5h6v-5h36v5h6v-5h4v-7h-56V53z M9.501,56h-2v-3h2V56z M51.501,56h-2v-3h2V56z M3.501,48h52v3h-2h-6h-36h-6h-2
		V48z"/>
	<path d="M20.501,35v1c0,4.963,4.038,9,9,9s9-4.037,9-9v-1c0-4.963-4.038-9-9-9S20.501,30.037,20.501,35z M36.501,35v1
		c0,3.859-3.14,7-7,7s-7-3.141-7-7v-1c0-3.859,3.14-7,7-7S36.501,31.141,36.501,35z"/>
	<path d="M54.501,26h-12c-1.654,0-3,1.346-3,3v13c0,1.654,1.346,3,3,3h12c1.654,0,3-1.346,3-3V29C57.501,27.346,56.155,26,54.501,26
		z M55.501,42c0,0.552-0.449,1-1,1h-12c-0.551,0-1-0.448-1-1V29c0-0.552,0.449-1,1-1h12c0.551,0,1,0.448,1,1V42z"/>
	<path d="M8.373,41h3.432c0.671,0,1.294-0.359,1.626-0.939c0.318-0.555,0.33-1.21,0.036-1.772l-1.692-4.326l-0.068-0.142
		c-0.339-0.578-0.943-0.923-1.617-0.923h0c-0.674,0-1.278,0.345-1.616,0.924l-1.761,4.467c-0.294,0.562-0.282,1.218,0.036,1.772
		C7.079,40.641,7.702,41,8.373,41z M10.089,35.144L11.598,39H8.58L10.089,35.144z"/>
	<path d="M24.501,35.5c0,3.032,2.243,5.5,5,5.5s5-2.468,5-5.5s-2.243-5.5-5-5.5S24.501,32.468,24.501,35.5z M32.501,35.5
		c0,1.93-1.346,3.5-3,3.5s-3-1.57-3-3.5s1.346-3.5,3-3.5S32.501,33.571,32.501,35.5z"/>
	<ellipse cx="29.501" cy="35.5" rx="2" ry="1.5"/>
	<path d="M52.501,29h-8c-1.103,0-2,0.897-2,2v9c0,1.103,0.897,2,2,2h8c1.103,0,2-0.897,2-2v-9C54.501,29.898,53.604,29,52.501,29z
		 M52.498,40h-7.997v-9h8L52.498,40z"/>
	<path d="M46.501,35c0.256,0,0.512-0.098,0.707-0.293l1-1c0.391-0.391,0.391-1.023,0-1.414s-1.023-0.391-1.414,0l-1,1
		c-0.391,0.391-0.391,1.023,0,1.414C45.989,34.903,46.245,35,46.501,35z"/>
	<path d="M46.794,38.707C46.989,38.903,47.245,39,47.501,39s0.512-0.098,0.707-0.293c0.391-0.391,0.391-1.023,0-1.414l-1-1
		c-0.391-0.391-1.023-0.391-1.414,0s-0.391,1.023,0,1.414L46.794,38.707z"/>
	<path d="M48.794,36.707C48.989,36.903,49.245,37,49.501,37s0.512-0.098,0.707-0.293l1-1c0.391-0.391,0.391-1.023,0-1.414
		s-1.023-0.391-1.414,0l-1,1C48.403,35.684,48.403,36.317,48.794,36.707z"/>
	<path d="M14.116,23c0.097,0,0.195-0.014,0.292-0.044l4.343-1.325l-3.805,2.537c-0.459,0.307-0.583,0.927-0.277,1.387
		C14.862,25.844,15.179,26,15.502,26c0.19,0,0.383-0.055,0.554-0.168l9.341-6.227l30.396-9.27c0.528-0.161,0.826-0.72,0.665-1.248
		s-0.722-0.828-1.248-0.664l-24.035,7.33L52.056,1.832c0.459-0.307,0.583-0.927,0.277-1.387c-0.307-0.46-0.927-0.584-1.387-0.277
		L24.529,17.78l-10.704,3.265c-0.528,0.161-0.826,0.72-0.665,1.248C13.291,22.723,13.687,23,14.116,23z"/>
</g>
<g>
</g>
<g>
</g>
<g>
</g>
<g>
</g>
<g>
</g>
<g>
</g>
<g>
</g>
<g>
</g>
<g>
</g>
<g>
</g>
<g>
</g>
<g>
</g>
<g>
</g>
<g>
</g>
<g>
</g>
</svg>
