<?xml version="1.0" encoding="iso-8859-1"?>
<!-- Generator: Adobe Illustrator 19.0.0, SVG Export Plug-In . SVG Version: 6.00 Build 0)  -->
<svg version="1.1" id="Capa_1" xmlns="http://www.w3.org/2000/svg" xmlns:xlink="http://www.w3.org/1999/xlink" x="0px" y="0px"
	 viewBox="0 0 512 512" style="enable-background:new 0 0 512 512;" xml:space="preserve">
<g>
	<g>
		<g>
			<path d="M486.4,38.4H25.6C11.468,38.415,0.015,49.868,0,64v307.2c0.015,14.132,11.468,25.585,25.6,25.6h86.043
				c7.065,43.697,67.917,76.8,144.357,76.8s137.293-33.103,144.357-76.8H486.4c14.132-0.015,25.585-11.468,25.6-25.6V64
				C511.985,49.868,500.532,38.415,486.4,38.4z M256,456.533c-69.383,0-128-31.262-128-68.267S186.617,320,256,320
				s128,31.262,128,68.267S325.383,456.533,256,456.533z M193.515,256.428c19.051,28.556,53.36,42.915,87.072,36.441
				c-5.743,4.044-11.892,7.478-18.348,10.244c-2.085-0.05-4.129-0.179-6.239-0.179c-18.653-0.059-37.25,2.046-55.418,6.273
				c-40.687-8.478-72.207-40.719-79.763-81.587c-7.556-40.868,10.352-82.247,45.318-104.713
				c34.966-22.465,80.045-21.555,114.075,2.303c-33.74-6.324-67.985,8.188-86.908,36.829
				C174.381,190.679,174.464,227.871,193.515,256.428z M494.933,371.2c-0.005,4.711-3.822,8.529-8.533,8.533h-86.043
				c-5.904-36.52-49.444-65.545-108.195-74.124c13.73-9.991,25.171-22.795,33.558-37.559c0.087-0.154,0.081-0.326,0.157-0.483
				c0.242-0.538,0.425-1.1,0.547-1.677c0.655-2.061,0.358-4.307-0.811-6.127c-0.264-0.519-0.582-1.008-0.949-1.46
				c-0.116-0.134-0.156-0.305-0.282-0.433c-0.686-0.406-1.321-0.893-1.892-1.45c-0.154-0.087-0.327-0.082-0.484-0.158
				c-0.536-0.241-1.097-0.424-1.673-0.546c-2.078-0.656-4.339-0.35-6.168,0.834c-0.5,0.257-0.973,0.565-1.41,0.919
				c-0.137,0.119-0.313,0.16-0.444,0.29c-26.781,26.317-69.788,26.067-96.261-0.561s-26.473-69.635,0-96.262
				s69.48-26.878,96.261-0.561c0.131,0.129,0.306,0.169,0.443,0.287c0.444,0.36,0.925,0.672,1.434,0.932
				c1.83,1.176,4.088,1.474,6.16,0.814c0.57-0.122,1.126-0.303,1.658-0.542c0.161-0.078,0.339-0.073,0.496-0.162
				c0.315-0.236,0.613-0.495,0.891-0.774c0.345-0.198,0.676-0.421,0.989-0.667c0.128-0.131,0.169-0.304,0.286-0.441
				c0.364-0.448,0.68-0.934,0.942-1.449c1.17-1.819,1.469-4.065,0.814-6.127c-0.123-0.582-0.309-1.148-0.554-1.69
				c-0.077-0.158-0.072-0.331-0.159-0.486c-25.57-45.048-77.262-68.479-127.993-58.019s-88.938,52.429-94.603,103.917
				s22.503,100.759,69.747,121.999c-33.969,13.772-57.038,35.895-61.221,61.766H25.6c-4.71-0.006-8.527-3.823-8.533-8.533V64
				c0.006-4.71,3.823-8.527,8.533-8.533h460.8c4.711,0.005,8.529,3.822,8.533,8.533V371.2z"/>
			<path d="M403.95,202.004L403.95,202.004l-16.792-11.875l0.262-20.563c0.042-3.248-1.764-6.239-4.659-7.713
				s-6.376-1.177-8.978,0.767l-16.479,12.296l-19.479-6.604c-3.076-1.041-6.477-0.246-8.772,2.051
				c-2.296,2.297-3.088,5.698-2.044,8.774l6.604,19.471l-12.3,16.483c-1.945,2.603-2.242,6.085-0.766,8.98
				c1.52,2.852,4.481,4.641,7.713,4.658l20.563-0.263l11.875,16.787c1.875,2.653,5.093,4.012,8.302,3.504
				c3.209-0.508,5.851-2.793,6.815-5.896l6.104-19.638l19.642-6.104c3.1-0.966,5.384-3.608,5.892-6.815
				C407.958,207.098,406.601,203.88,403.95,202.004z M372.567,208.258c-2.683,0.833-4.784,2.934-5.617,5.617l-2.304,7.408
				l-4.479-6.333c-1.598-2.263-4.196-3.609-6.967-3.608h-0.108l-7.763,0.1l4.642-6.221c1.682-2.25,2.147-5.186,1.242-7.846
				l-2.492-7.346l7.354,2.492c2.66,0.901,5.592,0.435,7.842-1.246l6.221-4.642l-0.1,7.763c-0.035,2.807,1.313,5.453,3.604,7.075
				l6.338,4.483L372.567,208.258z"/>
			<path d="M238.933,345.6h-51.2c-4.713,0-8.533,3.82-8.533,8.533s3.82,8.533,8.533,8.533H204.8V422.4
				c0,4.713,3.821,8.533,8.533,8.533c4.713,0,8.533-3.82,8.533-8.533v-59.733h17.067c4.713,0,8.533-3.82,8.533-8.533
				S243.646,345.6,238.933,345.6z"/>
			<path d="M324.267,371.2c-0.015-14.132-11.468-25.585-25.6-25.6h-25.6c-4.713,0-8.533,3.82-8.533,8.533V422.4
				c0,4.713,3.821,8.533,8.533,8.533c4.713,0,8.533-3.82,8.533-8.533v-25.6h4.268l23.041,30.721
				c2.828,3.769,8.177,4.532,11.946,1.704c3.769-2.828,4.532-8.177,1.704-11.946l-16.316-21.754
				C316.926,392.233,324.228,382.379,324.267,371.2z M298.667,379.733H281.6v-17.067h17.067c4.713,0,8.533,3.82,8.533,8.533
				S303.38,379.733,298.667,379.733z"/>
		</g>
	</g>
</g>
<g>
</g>
<g>
</g>
<g>
</g>
<g>
</g>
<g>
</g>
<g>
</g>
<g>
</g>
<g>
</g>
<g>
</g>
<g>
</g>
<g>
</g>
<g>
</g>
<g>
</g>
<g>
</g>
<g>
</g>
</svg>
