<?xml version="1.0" encoding="iso-8859-1"?>
<!-- Generator: Adobe Illustrator 19.0.0, SVG Export Plug-In . SVG Version: 6.00 Build 0)  -->
<svg version="1.1" id="Capa_1" xmlns="http://www.w3.org/2000/svg" xmlns:xlink="http://www.w3.org/1999/xlink" x="0px" y="0px"
	 viewBox="0 0 512 512" style="enable-background:new 0 0 512 512;" xml:space="preserve">
<g>
	<g>
		<g>
			<path d="M486.4,38.4H25.6C11.468,38.415,0.015,49.868,0,64v307.2c0.015,14.132,11.468,25.585,25.6,25.6h86.043
				c7.066,43.697,67.921,76.8,144.357,76.8s137.292-33.103,144.357-76.8H486.4c14.132-0.015,25.585-11.468,25.6-25.6V64
				C511.985,49.868,500.532,38.415,486.4,38.4z M256,456.533c-69.383,0-128-31.258-128-68.267
				c0-31.883,44.408-60.658,103.367-66.958c16.395-1.747,32.93-1.744,49.325,0.009c58.9,6.291,103.308,35.066,103.308,66.95
				C384,425.275,325.383,456.533,256,456.533z M494.933,371.2c-0.003,4.712-3.822,8.53-8.533,8.533h-86.106
				c-6.327-37.535-53.872-68.56-117.727-75.375c-17.641-1.894-35.434-1.897-53.075-0.009
				c-63.91,6.822-111.457,37.848-117.786,75.383H25.6c-4.711-0.003-8.53-3.822-8.533-8.533V226.133h477.867V371.2z M494.933,209.067
				H17.067V64c0.003-4.712,3.822-8.53,8.533-8.533h460.8c4.712,0.003,8.53,3.822,8.533,8.533V209.067z"/>
			<path d="M238.933,345.6c-2.264-0.001-4.435,0.897-6.035,2.498c-1.601,1.601-2.499,3.772-2.498,6.035v51.2
				c-0.003,4.711-3.822,8.53-8.533,8.533h-8.533c-4.712-0.003-8.53-3.822-8.533-8.533v-51.2c0-4.713-3.82-8.533-8.533-8.533
				s-8.533,3.82-8.533,8.533v51.2c0.015,14.132,11.468,25.585,25.6,25.6h8.533c14.132-0.015,25.585-11.468,25.6-25.6v-51.2
				c0.001-2.264-0.897-4.435-2.498-6.035C243.368,346.497,241.197,345.599,238.933,345.6z"/>
			<path d="M298.667,345.6h-8.533c-14.132,0.015-25.585,11.468-25.6,25.6v51.2c0,4.713,3.821,8.533,8.533,8.533
				c4.713,0,8.533-3.82,8.533-8.533v-17.067h25.6V422.4c0,4.713,3.82,8.533,8.533,8.533s8.533-3.82,8.533-8.533v-51.2
				C324.251,357.068,312.799,345.615,298.667,345.6z M307.2,388.267h-25.6V371.2c0.003-4.712,3.822-8.53,8.533-8.533h8.533
				c4.712,0.003,8.53,3.822,8.533,8.533V388.267z"/>
		</g>
	</g>
</g>
<g>
</g>
<g>
</g>
<g>
</g>
<g>
</g>
<g>
</g>
<g>
</g>
<g>
</g>
<g>
</g>
<g>
</g>
<g>
</g>
<g>
</g>
<g>
</g>
<g>
</g>
<g>
</g>
<g>
</g>
</svg>
